<svg xmlns="http://www.w3.org/2000/svg" viewBox="0 0 199.37 78.19"><defs><style>.cls-1,.cls-2{fill:#fff;}.cls-2,.cls-4{fill-rule:evenodd;}.cls-3,.cls-4{fill:#dfdfdf;}</style></defs><g id="katman_2" data-name="katman 2"><g id="katman_1-2" data-name="katman 1"><path class="cls-1" d="M195,53.86a.86.86,0,0,1,.3-.64,1.09,1.09,0,0,1,.69-.28.94.94,0,0,1,.74.4,1.73,1.73,0,0,1,.3,1,4.31,4.31,0,0,1-.11,1.08,2.63,2.63,0,0,1-.41.82,3.6,3.6,0,0,1-.66.69,1,1,0,0,1-.66.29.4.4,0,0,1-.34-.19.39.39,0,0,1,0-.39,2.43,2.43,0,0,0,.55-.42,1.46,1.46,0,0,0,.37-.64,1.29,1.29,0,0,0,0-.48.61.61,0,0,0-.27-.43,2.24,2.24,0,0,1-.42-.34A.69.69,0,0,1,195,53.86Zm2.32,0a.94.94,0,0,1,.3-.64,1,1,0,0,1,.7-.28.92.92,0,0,1,.73.4,1.65,1.65,0,0,1,.31,1,3.89,3.89,0,0,1-.12,1.08,2.26,2.26,0,0,1-.41.82,2.89,2.89,0,0,1-.66.69,1,1,0,0,1-.65.29.42.42,0,0,1-.35-.19.34.34,0,0,1,0-.39,2.23,2.23,0,0,0,.55-.42,1.29,1.29,0,0,0,.4-.57,1.27,1.27,0,0,0,.06-.48.62.62,0,0,0-.28-.43,2.72,2.72,0,0,1-.42-.34.63.63,0,0,1-.21-.54Z"/><path class="cls-1" d="M103.63,46a4.17,4.17,0,0,1-2.26,1.13c-.73,0-1.78-.8-3.16-2.42-1-1.12-1.94-2.26-2.89-3.42q-.82-1-2.64-2.94l-.11.08V42a2.73,2.73,0,0,0,.25.94,2.93,2.93,0,0,1,.24,1,1.21,1.21,0,0,1-.55,1,1.79,1.79,0,0,1-1.1.42,2.07,2.07,0,0,1-1.62-.69,2.35,2.35,0,0,1-.64-1.73V37.55a8.34,8.34,0,0,1,.11-1.47,11.82,11.82,0,0,0,.11-1.47V23.82a19.87,19.87,0,0,0-.31-4,6.69,6.69,0,0,1-.14-1,1.72,1.72,0,0,1,.87-1.37,2.6,2.6,0,0,1,1.48-.63,2.18,2.18,0,0,1,1.22.46,1.3,1.3,0,0,1,.66,1,7.09,7.09,0,0,1-.24,1.13,13.76,13.76,0,0,0-.24,3q0,.66-.12,10.75l4.08-4q3.24-3.22,3.81-3.23c1.34,0,2,.88,1.93,2.62V29a40.71,40.71,0,0,0-4.2,3.19c-2.17,1.8-3.26,3-3.25,3.58,0,.06.68.9,2,2.54s2.09,2.52,2.42,2.9a14,14,0,0,0,4.23,3.46Z"/><path class="cls-1" d="M108.93,29.22a10,10,0,0,1-.3,2.05,9.77,9.77,0,0,0-.3,2v8.3a10.34,10.34,0,0,0,.45,2.42c-.38.62-.8.93-1.25.93a2.4,2.4,0,0,1-2.61-2.18,2.17,2.17,0,0,1,0-.36c-.25-3.14-.38-5.51-.38-7.09a62.39,62.39,0,0,1,.3-6.69v-.4c0-.49.35-.73,1-.73a4.75,4.75,0,0,1,1.86.41C108.53,28.22,108.93,28.65,108.93,29.22Zm.34-5.64a2,2,0,0,1-.56,1.45,1.89,1.89,0,0,1-1.4.56,2.62,2.62,0,0,1-1.82-.73,2.26,2.26,0,0,1-.85-1.77,1.94,1.94,0,0,1,.59-1.45,2,2,0,0,1,1.45-.56,2.66,2.66,0,0,1,1.8.7A2.3,2.3,0,0,1,109.27,23.58Z"/><path class="cls-1" d="M120.7,30.87a8.47,8.47,0,0,1-.07.88c-.53.81-1.08,1.21-1.66,1.21a1.57,1.57,0,0,1-1.28-.88c0-1.21-.45-1.82-1.2-1.82-.45,0-1,1.28-1.65,3.83a19.16,19.16,0,0,0-.46,4.71,13.44,13.44,0,0,0,.25,3.47,3.92,3.92,0,0,1,.28,1,1.29,1.29,0,0,1-.58,1.11,2.12,2.12,0,0,1-1.28.43,1.78,1.78,0,0,1-2-1.53,1.85,1.85,0,0,1,0-.47,2.72,2.72,0,0,1,.09-.56,3.1,3.1,0,0,0,.1-.53c0-1.37-.07-3.4-.19-6.1s-.19-4.72-.19-6.06.68-1.82,2-1.82a1.79,1.79,0,0,1,1.66.77,3.12,3.12,0,0,1,2.37-1.25,3.2,3.2,0,0,1,1.72.53,4.73,4.73,0,0,1,1.32,1.39A3.36,3.36,0,0,1,120.7,30.87Z"/><path class="cls-1" d="M134.54,37.88a59.74,59.74,0,0,1-.3,7.33,1.39,1.39,0,0,1-1.51,1.26h-.07c-1.4,0-2-.75-1.88-2.26a8.32,8.32,0,0,1-3.91,1,7.09,7.09,0,0,1-3.72-1.05A3.64,3.64,0,0,1,121,41c0-1.26.8-2.45,2.41-3.55a7.51,7.51,0,0,1,4.1-1.49h3.2v-1q0-4.17-2.34-4.19a2.65,2.65,0,0,0-3,3,.88.88,0,0,1-1,1,2,2,0,0,1-1.34-.62,1.76,1.76,0,0,1-.69-1.31,5,5,0,0,1,1.5-3.71,5.11,5.11,0,0,1,3.61-1.45Q134.55,27.61,134.54,37.88Zm-3.79,1.45c0-.54-.38-.81-1.13-.81-3.14,0-4.7.79-4.7,2.38q0,1.29,2.07,1.29a4.13,4.13,0,0,0,2.4-.77,2.44,2.44,0,0,0,1.36-2.09Z"/><path class="cls-1" d="M149.44,29.82a3,3,0,0,1-.3,1.46,5.12,5.12,0,0,1-.79,1L144,37.05a19.21,19.21,0,0,0-3.58,5H141a14.14,14.14,0,0,0,2.6-.35,16.11,16.11,0,0,1,2.59-.34,3.18,3.18,0,0,1,3.24,2.1l-.64.84h-1a21.47,21.47,0,0,0-3.91.43,23.07,23.07,0,0,1-3.8.46,3.68,3.68,0,0,1-2.18-.65,2.22,2.22,0,0,1-1.13-2,7.71,7.71,0,0,1,1.73-4c.71-1,1.91-2.39,3.58-4.31a39.48,39.48,0,0,0,3-3.58h-.19a6.86,6.86,0,0,0-3.74,1.22,16.52,16.52,0,0,1-2,1.23,1.49,1.49,0,0,1-1.2-.58,2,2,0,0,1-.49-1.35c0-.91,1.29-1.79,3.87-2.62a19.15,19.15,0,0,1,5.08-1C148.44,27.64,149.44,28.36,149.44,29.82Z"/><path class="cls-1" d="M163.05,40.66a4.38,4.38,0,0,1-1.5,3.3,7,7,0,0,1-7,1c-3-1.21-4.51-2.19-4.52-2.94,0-1.19.79-1.78,2.37-1.78h.72c.07.81.67,1.45,1.8,1.94a5.7,5.7,0,0,0,2.82.52c.73,0,1.09-.33,1.09-.85a1.49,1.49,0,0,0-.05-.36,2.32,2.32,0,0,1-.06-.38c0-.09-.48-.3-1.43-.62s-1.68-.55-1.8-.61c-2.86-1.82-4.29-4-4.29-6.61A8,8,0,0,1,152.41,29a4,4,0,0,1,3.46-2.15,6.8,6.8,0,0,1,3.52,1.29,5.44,5.44,0,0,1,2.42,2.78,6.41,6.41,0,0,1,.3,1.73,3.55,3.55,0,0,1-.18,1.21L161.47,35a2.34,2.34,0,0,1-1.43.52,3,3,0,0,1-1.25-.5c-.59-.34-.89-.63-.89-.87a4.72,4.72,0,0,1,.45-1,1.93,1.93,0,0,0,.27-.88c0-1.61-.59-2.42-1.77-2.42-.7,0-1.24.48-1.62,1.45a6.92,6.92,0,0,0-.41,2.42c0,1.07.71,2,2.14,2.9l3.95,1.89C162.34,39.22,163.05,39.93,163.05,40.66Z"/><path class="cls-1" d="M178.14,36.82a11,11,0,0,1-1.7,6.2,6,6,0,0,1-5.17,2.91,5.69,5.69,0,0,1-5-2.41,9.73,9.73,0,0,1-1.54-5.8,14.5,14.5,0,0,1,1.69-6.85c1.3-2.55,3-3.83,5.08-3.83a5,5,0,0,1,2.44.93Q178.14,30.67,178.14,36.82Zm-3.31-.08q0-6.15-2.79-6.17c-1.33,0-2.33.88-3,2.62a12.65,12.65,0,0,0-.75,4.47c0,3.58,1,5.36,3,5.36a3.06,3.06,0,0,0,2.82-2.2,10.28,10.28,0,0,0,.72-4.11Z"/><path class="cls-1" d="M192.16,20.68a1.3,1.3,0,0,1-.62,1.12,2.06,2.06,0,0,1-1.26.45,1.67,1.67,0,0,1-1-.49,1.45,1.45,0,0,0-.3-1,1.8,1.8,0,0,0-1.09-.23q-1.62,0-2.33,4.32a42.07,42.07,0,0,0-.42,5.71h.94a2.36,2.36,0,0,1,2.19,1.31l-.34,1.53a5.39,5.39,0,0,1-2.48.41,4,4,0,0,0-.49,0c-.07.88-.11,1.85-.11,2.9v3.66a17.16,17.16,0,0,0,.6,4.4,4.92,4.92,0,0,1-2.14.88c-.61,0-1.08-.5-1.43-1.49a6.45,6.45,0,0,1-.45-2.34c0-.48,0-3,.15-7.73l-1.17.12a1.63,1.63,0,0,1-1.14-.39,1.71,1.71,0,0,1,0-2.44,1.68,1.68,0,0,1,.46-.33,7.91,7.91,0,0,1,2-.16,15.48,15.48,0,0,0,.11-2.46,19.21,19.21,0,0,1,1.24-7.19c1.13-2.66,2.82-4,5.08-4a4.58,4.58,0,0,1,2.78.81A3.23,3.23,0,0,1,192.16,20.68Z"/><path class="cls-1" d="M198.37,30.3c0,.73-1,1.24-3.08,1.53,0,.6-.08,1.94-.08,4v2.69a18.8,18.8,0,0,0,.23,2.38,18.19,18.19,0,0,1,.22,2.33,1.45,1.45,0,0,1-.6,1.15,1.86,1.86,0,0,1-1.2.51c-.63,0-1.16-.58-1.58-1.74a7.29,7.29,0,0,1-.49-2.57V32c-1.15-.19-1.82-.31-2-.37-.66-.21-1-.52-1-.92a1.21,1.21,0,0,1,.07-.37A2.72,2.72,0,0,1,191,28.89h.46c.52,0,.77-.65.75-2V24a2,2,0,0,1-.19-.77,1.16,1.16,0,0,1,.58-.94,1.86,1.86,0,0,1,1.1-.43,2.07,2.07,0,0,1,1.49.79,2.45,2.45,0,0,1,.7,1.67,6.49,6.49,0,0,1-.28,1.91,5.9,5.9,0,0,0-.24,2v.16C197.39,28.58,198.37,29.23,198.37,30.3Z"/><path class="cls-1" d="M90.27,55.3a.83.83,0,0,1-.3.64.94.94,0,0,1-.69.29.87.87,0,0,1-.73-.41,1.63,1.63,0,0,1-.31-1,4,4,0,0,1,.12-1.08,2.6,2.6,0,0,1,.4-.82,3.91,3.91,0,0,1,.66-.69,1.14,1.14,0,0,1,.66-.29.46.46,0,0,1,.34.19.39.39,0,0,1,0,.39,2.79,2.79,0,0,0-.54.42,1.5,1.5,0,0,0-.38.64,1.29,1.29,0,0,0,0,.48.57.57,0,0,0,.27.43,3.65,3.65,0,0,1,.43.35A.68.68,0,0,1,90.27,55.3Zm2.33,0a.83.83,0,0,1-.3.64,1,1,0,0,1-.7.29.89.89,0,0,1-.73-.41,1.63,1.63,0,0,1-.31-1,4,4,0,0,1,.12-1.08,2.87,2.87,0,0,1,.41-.82,3.91,3.91,0,0,1,.66-.69,1.08,1.08,0,0,1,.66-.29.46.46,0,0,1,.34.19.32.32,0,0,1,0,.39,2.86,2.86,0,0,0-.55.42,1.58,1.58,0,0,0-.37.64,1,1,0,0,0,0,.48.52.52,0,0,0,.27.43,4.87,4.87,0,0,1,.42.35.62.62,0,0,1,.07.46Z"/><path class="cls-1" d="M100.27,57.67a9.59,9.59,0,0,1-.48,2.91c-.42,1.32-1,2-1.67,2s-1.19-.43-1.62-1.29c-.3.91-.76,1.37-1.39,1.37-.81,0-1.4-.59-1.77-1.78A9.6,9.6,0,0,1,93,58,15.73,15.73,0,0,1,93,56.33a.63.63,0,0,1,.54-.34,1.13,1.13,0,0,1,.59.2.59.59,0,0,1,.3.49,2.89,2.89,0,0,1-.09.6,4.11,4.11,0,0,0-.08.6c0,2.3.22,3.45.67,3.45s.78-.64.92-1.91c0-.48.08-1.32.08-2.52,0-.4.21-.6.64-.6s.72.29.72.86v2.2c0,1.31.22,2,.67,2s.67-.48.86-1.44a8.88,8.88,0,0,0,.22-2,3.07,3.07,0,0,0-.07-1l-.16-.19a.34.34,0,0,1-.09-.24A.78.78,0,0,1,99,56a.77.77,0,0,1,.5-.22q.39,0,.63.75A3.54,3.54,0,0,1,100.27,57.67Z"/><path class="cls-1" d="M102.93,56.49a3.6,3.6,0,0,1-.12.8,3.69,3.69,0,0,0-.12.8v3.23a3.72,3.72,0,0,0,.18.94c-.15.24-.31.36-.49.36a.93.93,0,0,1-1-.87v-.13c-.1-1.22-.14-2.14-.14-2.76a25.24,25.24,0,0,1,.11-2.6v-.14c0-.19.14-.29.41-.29a2,2,0,0,1,.72.16C102.77,56.11,102.93,56.27,102.93,56.49Zm.13-2.19a.74.74,0,0,1-.72.78h0a1,1,0,0,1-.71-.28.87.87,0,0,1-.33-.69.75.75,0,0,1,.23-.56.82.82,0,0,1,.56-.22,1.06,1.06,0,0,1,.7.27A.91.91,0,0,1,103.06,54.3Z"/><path class="cls-1" d="M106.72,56.92c0,.28-.4.48-1.2.59v2.57a7,7,0,0,0,.09.93c0,.3.07.6.08.9a.59.59,0,0,1-.23.45.74.74,0,0,1-.47.2c-.24,0-.45-.23-.61-.68a2.82,2.82,0,0,1-.19-1V57.59c-.45-.07-.71-.12-.78-.14-.25-.09-.38-.21-.38-.36a.33.33,0,0,1,0-.14,1,1,0,0,1,.85-.58h.17c.21,0,.31-.25.3-.77V54.47a.74.74,0,0,1-.08-.3.53.53,0,0,1,.23-.37.9.9,0,0,1,.42-.16.79.79,0,0,1,.58.31.9.9,0,0,1,.28.65,2.65,2.65,0,0,1-.11.74,2.47,2.47,0,0,0-.09.76v.06C106.34,56.25,106.72,56.5,106.72,56.92Z"/><path class="cls-1" d="M111.89,62.82a.89.89,0,0,1-.73.3.85.85,0,0,1-.63-.41V60.53c0-2.31-.31-3.47-.93-3.47s-1,.93-1,2.8v1a5.51,5.51,0,0,0,.07.71,5.94,5.94,0,0,1,.08.71.45.45,0,0,1-.23.37.74.74,0,0,1-.42.17.75.75,0,0,1-.62-.32,1.17,1.17,0,0,1-.25-.72l.06-9.07v-.23a.51.51,0,0,1,.44-.57h.14a1.16,1.16,0,0,1,.64.28.75.75,0,0,1,.37.56,5.6,5.6,0,0,1-.14,1,5.73,5.73,0,0,0-.14,1v1.4a1.18,1.18,0,0,1,.54-.2,3.57,3.57,0,0,1,1.25.29,2.33,2.33,0,0,1,1.2,1.27,5.63,5.63,0,0,1,.24,1.82Z"/><path class="cls-1" d="M120.19,60.75a1.78,1.78,0,0,1-.69,1.15,2.8,2.8,0,0,1-1.1.76,2.68,2.68,0,0,1-.93.16,2.21,2.21,0,0,1-1.81-.78,3.12,3.12,0,0,1-.65-2,7.41,7.41,0,0,1,.6-2.7c.48-1.19,1-1.78,1.67-1.78a2.75,2.75,0,0,1,1.27.43,1.91,1.91,0,0,1,.92,1,3.42,3.42,0,0,1,.12,1,4,4,0,0,1-.19,1.1c-.16.52-.35.78-.59.78a.8.8,0,0,1-.47-.15.51.51,0,0,1-.26-.42.83.83,0,0,1,.13-.36,2.76,2.76,0,0,0,.08-.86,3.78,3.78,0,0,0-.05-.75c-.06-.32-.19-.48-.41-.48-.48,0-.85.44-1.11,1.33a7.17,7.17,0,0,0-.29,2c0,1.11.33,1.67,1,1.67a1.43,1.43,0,0,0,.91-.44,2.43,2.43,0,0,0,.66-.83c.15-.33.34-.5.57-.5a.56.56,0,0,1,.42.27A.94.94,0,0,1,120.19,60.75Z"/><path class="cls-1" d="M125.66,62.82a1,1,0,0,1-.73.3.81.81,0,0,1-.63-.41V60.53c0-2.31-.31-3.47-.94-3.47s-1,.93-1,2.8v1a5.51,5.51,0,0,0,.07.71,5.88,5.88,0,0,1,.07.71.44.44,0,0,1-.22.37.69.69,0,0,1-1-.11l0,0a1.1,1.1,0,0,1-.26-.72l.06-9.07v-.23a.51.51,0,0,1,.44-.57h.14a1.27,1.27,0,0,1,.65.28.74.74,0,0,1,.36.56,5.59,5.59,0,0,1-.13,1,4.92,4.92,0,0,0-.14,1v1.4a1.18,1.18,0,0,1,.55-.2,3.51,3.51,0,0,1,1.24.29,2.3,2.3,0,0,1,1.2,1.27,5.38,5.38,0,0,1,.25,1.82Z"/><path class="cls-1" d="M131.2,61.14c0,.53-.33.93-1,1.23a3.82,3.82,0,0,1-1.63.34c-1.5,0-2.25-.91-2.25-2.74a7.2,7.2,0,0,1,.51-2.51c.42-1.12.93-1.69,1.52-1.69a2.83,2.83,0,0,1,1.74.77,2.17,2.17,0,0,1,.92,1.6,1.88,1.88,0,0,1-.86,1.64,2.93,2.93,0,0,1-1.81.55,1.47,1.47,0,0,1-.66-.27c0,1,.31,1.49.82,1.49a2.26,2.26,0,0,0,1.26-.39,2.38,2.38,0,0,1,.8-.39C131,60.82,131.2,60.89,131.2,61.14Zm-1.59-3a1.39,1.39,0,0,0-.22-.74.65.65,0,0,0-.56-.35.85.85,0,0,0-.75.45,1.89,1.89,0,0,0-.21.93.65.65,0,0,0,.67.67c.73,0,1.07-.28,1.07-.92Z"/><path class="cls-1" d="M135.79,57.13a2,2,0,0,1,0,.35c-.2.31-.42.47-.64.47a.61.61,0,0,1-.5-.35c0-.47-.17-.7-.46-.7s-.39.5-.65,1.49a7.52,7.52,0,0,0-.17,1.83,6.05,6.05,0,0,0,.09,1.35,1.46,1.46,0,0,1,.11.41.51.51,0,0,1-.22.43.75.75,0,0,1-.5.16.68.68,0,0,1-.79-.57.74.74,0,0,1,0-.21.81.81,0,0,1,0-.22.74.74,0,0,0,0-.21c0-.53,0-1.32-.08-2.37s-.07-1.83-.07-2.36.26-.7.79-.7a.68.68,0,0,1,.64.3,1.19,1.19,0,0,1,.93-.49,1.42,1.42,0,0,1,.67.2,2,2,0,0,1,.51.54A1.36,1.36,0,0,1,135.79,57.13Z"/><path class="cls-1" d="M140.47,57.13v.35c-.21.31-.42.47-.65.47a.61.61,0,0,1-.5-.35c0-.47-.17-.7-.46-.7s-.39.5-.65,1.49a8.05,8.05,0,0,0-.17,1.83,6.05,6.05,0,0,0,.09,1.35,1.19,1.19,0,0,1,.11.41.51.51,0,0,1-.22.43.75.75,0,0,1-.5.16.69.69,0,0,1-.79-.59.61.61,0,0,1,0-.19.81.81,0,0,1,0-.22.74.74,0,0,0,0-.21c0-.53,0-1.32-.08-2.37s-.07-1.83-.07-2.36.27-.7.79-.7a.72.72,0,0,1,.65.3,1.18,1.18,0,0,1,.92-.49,1.42,1.42,0,0,1,.67.2,2,2,0,0,1,.51.54A1.3,1.3,0,0,1,140.47,57.13Z"/><path class="cls-1" d="M146.27,56.51c-.09.52-.18,1-.25,1.55a10.17,10.17,0,0,0-.15,1.55v4.26a2.4,2.4,0,0,1-.62,1.77,2.27,2.27,0,0,1-1.7.61,3.71,3.71,0,0,1-1.56-.39c-.67-.3-1-.67-1-1.1a.5.5,0,0,1,.16-.36.58.58,0,0,1,.38-.15,1.93,1.93,0,0,1,.63.42,1.66,1.66,0,0,0,1.14.42,1.06,1.06,0,0,0,1.09-.64A3.39,3.39,0,0,0,144.6,63v-.59a1.74,1.74,0,0,1-1.08.34,2,2,0,0,1-1.7-.85,3.29,3.29,0,0,1-.54-2c0-.09,0-1.4.15-4a1.9,1.9,0,0,1,.7-.21,1.86,1.86,0,0,1,.86.38,12.88,12.88,0,0,0-.35,3.76c0,1.2.29,1.8.85,1.8s.74-.37,1-1.13a6,6,0,0,0,.25-1.69V56.52a2.31,2.31,0,0,1,.89-.31A1.46,1.46,0,0,1,146.27,56.51Z"/><path class="cls-1" d="M154.52,59a5.75,5.75,0,0,1-.46,2.39,1.86,1.86,0,0,1-1.79,1.27,3.83,3.83,0,0,1-1.2-.29v.2a.47.47,0,0,1-.41.53h-.13a.76.76,0,0,1-.65-.32,2.41,2.41,0,0,1-.19-1,9.79,9.79,0,0,1-.07-1.08V60.6l.22-8.85c.16-.26.34-.37.55-.33a.38.38,0,0,1,.15,0,.64.64,0,0,1,.49.33,1.16,1.16,0,0,1,.23.64,17.74,17.74,0,0,1-.12,1.8c-.1.87-.15,1.46-.16,1.78a1.36,1.36,0,0,1,1.1-.54,2.06,2.06,0,0,1,1.44.62,2.89,2.89,0,0,1,.84,1.49A6.89,6.89,0,0,1,154.52,59Zm-1.36-.15c0-1.42-.28-2.13-.83-2.13s-.82.36-1.06,1.08a5.16,5.16,0,0,0-.28,1.74c0,1.31.37,2,1.1,2S153.16,60.63,153.16,58.82Z"/><path class="cls-1" d="M160.27,61.14c0,.53-.33.93-1,1.23a3.77,3.77,0,0,1-1.62.34c-1.5,0-2.25-.91-2.25-2.74a7.2,7.2,0,0,1,.51-2.51c.42-1.12.92-1.69,1.52-1.69a2.81,2.81,0,0,1,1.73.77,2.15,2.15,0,0,1,.93,1.6,1.9,1.9,0,0,1-.82,1.68,2.93,2.93,0,0,1-1.81.55,1.47,1.47,0,0,1-.66-.27c0,1,.31,1.49.82,1.49a2.26,2.26,0,0,0,1.26-.39,2.38,2.38,0,0,1,.8-.39C160.1,60.82,160.27,60.89,160.27,61.14Zm-1.6-3a1.41,1.41,0,0,0-.21-.74.65.65,0,0,0-.56-.35.85.85,0,0,0-.75.45,1.9,1.9,0,0,0-.22.93.69.69,0,0,0,.19.48.65.65,0,0,0,.49.19c.75,0,1.1-.28,1.1-.92Z"/><path class="cls-1" d="M168.27,62.82a.89.89,0,0,1-.73.3.81.81,0,0,1-.63-.41V60.53c0-2.31-.31-3.47-.94-3.47s-1,.93-1,2.8v1a5.51,5.51,0,0,0,.07.71,5.88,5.88,0,0,1,.07.71.44.44,0,0,1-.22.37.74.74,0,0,1-.42.17.75.75,0,0,1-.62-.32,1.1,1.1,0,0,1-.26-.72l.06-9.07v-.23a.51.51,0,0,1,.37-.62.53.53,0,0,1,.25,0,1.24,1.24,0,0,1,.64.28.78.78,0,0,1,.37.56,5.6,5.6,0,0,1-.14,1,4.92,4.92,0,0,0-.14,1v1.4a1.18,1.18,0,0,1,.54-.2,3.51,3.51,0,0,1,1.24.29,2.24,2.24,0,0,1,1.2,1.27,5.38,5.38,0,0,1,.25,1.82Z"/><path class="cls-1" d="M174.27,59.82a22.49,22.49,0,0,1-.12,2.85.55.55,0,0,1-.58.5h0c-.55,0-.79-.3-.73-.88a3.23,3.23,0,0,1-1.52.38,2.77,2.77,0,0,1-1.45-.41A1.4,1.4,0,0,1,169,61a1.74,1.74,0,0,1,.94-1.38,2.94,2.94,0,0,1,1.59-.58h1.24v-.33c0-1.09-.29-1.63-.9-1.63a1,1,0,0,0-1.16.82.86.86,0,0,0,0,.32c0,.26-.14.39-.41.39a.79.79,0,0,1-.52-.24.68.68,0,0,1-.27-.51,2,2,0,0,1,2-2Q174.28,55.87,174.27,59.82Zm-1.48.56c0-.2-.14-.31-.44-.31-1.21,0-1.82.31-1.82.93,0,.33.26.5.8.5a1.59,1.59,0,0,0,.94-.3,1,1,0,0,0,.54-.78Z"/><path class="cls-1" d="M180.49,58.82a6.3,6.3,0,0,1-.52,2.71A2.12,2.12,0,0,1,178,63a1.79,1.79,0,0,1-1.23-.44v.94a6.66,6.66,0,0,0,.33,2.35,1.76,1.76,0,0,1,.15.44c0,.36-.2.53-.59.53a.92.92,0,0,1-.66-.17,1.64,1.64,0,0,1-.32-.78,4.54,4.54,0,0,1-.13-.91V61.14q0-.51.06-1.41c0-.66.06-1.13.07-1.39s0-.6,0-1v-1c0-.89.27-1.33.81-1.33a.57.57,0,0,1,.38.14.46.46,0,0,1,.17.36,10.18,10.18,0,0,1-.07,1.25,1.67,1.67,0,0,1,1.33-.94,1.87,1.87,0,0,1,1.67.94A3.75,3.75,0,0,1,180.49,58.82Zm-1.3-.15c0-1.12-.23-1.69-.68-1.69-.19,0-.45.21-.76.61a5.64,5.64,0,0,0-1,3.25,2.93,2.93,0,0,1,.57.65.87.87,0,0,0,.65.43c.81,0,1.22-1.1,1.22-3.27Z"/><path class="cls-1" d="M186.45,58.82a6.46,6.46,0,0,1-.53,2.71,2.11,2.11,0,0,1-2,1.44,1.79,1.79,0,0,1-1.23-.44v.94a7,7,0,0,0,.32,2.36,1.76,1.76,0,0,1,.15.44c0,.36-.2.53-.59.53a1,1,0,0,1-.65-.17q-.16-.1-.33-.78a5.54,5.54,0,0,1-.13-.91v-3.8q0-.51.06-1.41c0-.66.06-1.13.07-1.39s0-.6,0-1v-1c0-.89.27-1.33.81-1.33a.57.57,0,0,1,.38.14.46.46,0,0,1,.17.36,10.18,10.18,0,0,1-.07,1.25,1.67,1.67,0,0,1,1.39-.94,1.85,1.85,0,0,1,1.66.94A3.75,3.75,0,0,1,186.45,58.82Zm-1.31-.15c0-1.12-.22-1.69-.67-1.69-.2,0-.45.21-.77.61a5.64,5.64,0,0,0-1,3.25,2.93,2.93,0,0,1,.57.65.87.87,0,0,0,.65.43c.82,0,1.22-1.1,1.22-3.27Z"/><path class="cls-1" d="M192.56,56.51c-.09.52-.17,1-.25,1.55a10.17,10.17,0,0,0-.15,1.55v4.26a2.36,2.36,0,0,1-.62,1.77,2.27,2.27,0,0,1-1.7.61,3.62,3.62,0,0,1-1.57-.43c-.68-.3-1-.67-1-1.1a.46.46,0,0,1,.17-.36.56.56,0,0,1,.37-.15q.13,0,.63.42a1.66,1.66,0,0,0,1.14.42,1.08,1.08,0,0,0,1.1-.64,3.55,3.55,0,0,0,.2-1.41v-.59a1.79,1.79,0,0,1-1.09.34,1.94,1.94,0,0,1-1.69-.85,3.29,3.29,0,0,1-.54-2c0-.09,0-1.4.14-4a2.1,2.1,0,0,1,.7-.21,1.85,1.85,0,0,1,.87.38,12.88,12.88,0,0,0-.35,3.76q0,1.8.84,1.8c.42,0,.75-.37,1-1.13a5.62,5.62,0,0,0,.25-1.69V57a4.33,4.33,0,0,0,0-.52,2.35,2.35,0,0,1,.9-.31A1.38,1.38,0,0,1,192.56,56.51Z"/><path class="cls-2" d="M27.72,12a33.53,33.53,0,0,0-13.21,3.76,32.12,32.12,0,0,1,12.81-5.47c-6.86-6-15,1.16-16.48,9.05C13.46,17.22,22.59,24,27.72,12Z"/><path class="cls-2" d="M34.43,34.07c6.25-3.71,9.73-12.83,2.47-16.71a28.74,28.74,0,0,1-.59,12.48,29.61,29.61,0,0,0-1-12.27C26.78,25.67,35.46,31.16,34.43,34.07Z"/><path class="cls-2" d="M37.23,39.68a10.47,10.47,0,0,0-10-1.32q1,3.73-.72,9.87C28,27.34,4.86,30.9,1,47.54-4.69,66,18.14,81.78,33.56,70.43,26.84,61.31,28.22,46.94,37.23,39.68Z"/><path class="cls-2" d="M35.06,11.35C28.34,15.06,20.54,23.83,24,34.16c-.42-10.19,8-19,13.41-20.42A79.76,79.76,0,0,1,53.84,38.35Q46.75,9.68,23.94,0L18.11,2A48.87,48.87,0,0,1,35.06,11.35Z"/><path class="cls-2" d="M52.85,78.16h0Z"/><path class="cls-2" d="M60.71,39.26a10.58,10.58,0,0,0-6.3,2.08c1.31,2.23,1.94,5.46,1.94,9.71-4.41-20.59-25.27-11.23-24.79,6A21.15,21.15,0,0,0,52.82,78.16C75.1,79.26,83.05,43.62,60.71,39.26Z"/><path class="cls-3" d="M54.17,72.37A21.15,21.15,0,0,1,32.93,51.29h0a18.62,18.62,0,0,1,.19-2.69A22.52,22.52,0,0,0,31.37,57a21.26,21.26,0,0,0,42.33,2.6A21.25,21.25,0,0,1,54.17,72.37Z"/><path class="cls-3" d="M17.69,65.19A21.12,21.12,0,0,1,2.06,44.09a20.92,20.92,0,0,0,13.6,29.28,21.3,21.3,0,0,0,17.74-3,22.37,22.37,0,0,1-2.93-5.66A21.21,21.21,0,0,1,17.69,65.19Z"/><path class="cls-4" d="M44.71,42.38c-6.62,0-10.12,9.14-10.12,14.63v1.07c.87-6,4.67-13.8,11.12-13.81a7.43,7.43,0,0,1,5.4,2.14A7.1,7.1,0,0,0,44.71,42.38Z"/><path class="cls-4" d="M17.55,36.87C11.16,35.14,5.35,43,3.89,48.32c-.1.34-.18.69-.25,1,2.44-5.6,8.17-12.09,14.39-10.4a7.33,7.33,0,0,1,4.64,3.48A7,7,0,0,0,17.55,36.87Z"/></g></g></svg>